<mxfile host="app.diagrams.net" modified="2023-05-28T10:02:48.220Z" agent="Mozilla/5.0 (Windows NT 10.0; Win64; x64) AppleWebKit/537.36 (KHTML, like Gecko) Chrome/113.0.0.0 Safari/537.36" etag="hyo4WcEZVI0M5DBxGOlN" version="21.3.4" type="device">
  <diagram name="Σελίδα-1" id="bnlR6SahmsRWUH3v-4KW">
    <mxGraphModel dx="1050" dy="541" grid="1" gridSize="10" guides="1" tooltips="1" connect="1" arrows="1" fold="1" page="1" pageScale="1" pageWidth="1169" pageHeight="1654" math="0" shadow="0">
      <root>
        <mxCell id="0" />
        <mxCell id="1" parent="0" />
        <mxCell id="4nMGlKhWPUo4mE3yYb9U-162" value="Alt2" style="shape=umlFrame;whiteSpace=wrap;html=1;pointerEvents=0;width=40;height=20;" parent="1" vertex="1">
          <mxGeometry x="740" y="2005" width="830" height="520" as="geometry" />
        </mxCell>
        <mxCell id="4nMGlKhWPUo4mE3yYb9U-163" value="Alt1" style="shape=umlFrame;whiteSpace=wrap;html=1;pointerEvents=0;width=40;height=20;" parent="1" vertex="1">
          <mxGeometry x="520" y="1725" width="670" height="240" as="geometry" />
        </mxCell>
        <mxCell id="4nMGlKhWPUo4mE3yYb9U-164" value="" style="shape=umlLifeline;perimeter=lifelinePerimeter;whiteSpace=wrap;html=1;container=1;dropTarget=0;collapsible=0;recursiveResize=0;outlineConnect=0;portConstraint=eastwest;newEdgeStyle={&quot;edgeStyle&quot;:&quot;elbowEdgeStyle&quot;,&quot;elbow&quot;:&quot;vertical&quot;,&quot;curved&quot;:0,&quot;rounded&quot;:0};participant=umlActor;" parent="1" vertex="1">
          <mxGeometry x="560" y="1615" width="20" height="940" as="geometry" />
        </mxCell>
        <mxCell id="4nMGlKhWPUo4mE3yYb9U-165" value="" style="shape=umlLifeline;perimeter=lifelinePerimeter;whiteSpace=wrap;html=1;container=1;dropTarget=0;collapsible=0;recursiveResize=0;outlineConnect=0;portConstraint=eastwest;newEdgeStyle={&quot;edgeStyle&quot;:&quot;elbowEdgeStyle&quot;,&quot;elbow&quot;:&quot;vertical&quot;,&quot;curved&quot;:0,&quot;rounded&quot;:0};participant=umlBoundary;" parent="1" vertex="1">
          <mxGeometry x="1480" y="1615" width="50" height="940" as="geometry" />
        </mxCell>
        <mxCell id="4nMGlKhWPUo4mE3yYb9U-166" value="" style="shape=umlLifeline;perimeter=lifelinePerimeter;whiteSpace=wrap;html=1;container=1;dropTarget=0;collapsible=0;recursiveResize=0;outlineConnect=0;portConstraint=eastwest;newEdgeStyle={&quot;edgeStyle&quot;:&quot;elbowEdgeStyle&quot;,&quot;elbow&quot;:&quot;vertical&quot;,&quot;curved&quot;:0,&quot;rounded&quot;:0};participant=umlBoundary;" parent="1" vertex="1">
          <mxGeometry x="1135" y="1615" width="50" height="940" as="geometry" />
        </mxCell>
        <mxCell id="4nMGlKhWPUo4mE3yYb9U-167" value="" style="shape=umlLifeline;perimeter=lifelinePerimeter;whiteSpace=wrap;html=1;container=1;dropTarget=0;collapsible=0;recursiveResize=0;outlineConnect=0;portConstraint=eastwest;newEdgeStyle={&quot;edgeStyle&quot;:&quot;elbowEdgeStyle&quot;,&quot;elbow&quot;:&quot;vertical&quot;,&quot;curved&quot;:0,&quot;rounded&quot;:0};participant=umlBoundary;" parent="1" vertex="1">
          <mxGeometry x="1010" y="1615" width="50" height="940" as="geometry" />
        </mxCell>
        <mxCell id="4nMGlKhWPUo4mE3yYb9U-168" value="" style="shape=umlLifeline;perimeter=lifelinePerimeter;whiteSpace=wrap;html=1;container=1;dropTarget=0;collapsible=0;recursiveResize=0;outlineConnect=0;portConstraint=eastwest;newEdgeStyle={&quot;edgeStyle&quot;:&quot;elbowEdgeStyle&quot;,&quot;elbow&quot;:&quot;vertical&quot;,&quot;curved&quot;:0,&quot;rounded&quot;:0};participant=umlBoundary;" parent="1" vertex="1">
          <mxGeometry x="640" y="1615" width="50" height="940" as="geometry" />
        </mxCell>
        <mxCell id="4nMGlKhWPUo4mE3yYb9U-169" value="" style="shape=umlLifeline;perimeter=lifelinePerimeter;whiteSpace=wrap;html=1;container=1;dropTarget=0;collapsible=0;recursiveResize=0;outlineConnect=0;portConstraint=eastwest;newEdgeStyle={&quot;edgeStyle&quot;:&quot;elbowEdgeStyle&quot;,&quot;elbow&quot;:&quot;vertical&quot;,&quot;curved&quot;:0,&quot;rounded&quot;:0};participant=umlEntity;" parent="1" vertex="1">
          <mxGeometry x="1370" y="1615" width="40" height="940" as="geometry" />
        </mxCell>
        <mxCell id="4nMGlKhWPUo4mE3yYb9U-170" value="" style="shape=umlLifeline;perimeter=lifelinePerimeter;whiteSpace=wrap;html=1;container=1;dropTarget=0;collapsible=0;recursiveResize=0;outlineConnect=0;portConstraint=eastwest;newEdgeStyle={&quot;edgeStyle&quot;:&quot;elbowEdgeStyle&quot;,&quot;elbow&quot;:&quot;vertical&quot;,&quot;curved&quot;:0,&quot;rounded&quot;:0};participant=umlEntity;" parent="1" vertex="1">
          <mxGeometry x="890" y="1615" width="40" height="940" as="geometry" />
        </mxCell>
        <mxCell id="4nMGlKhWPUo4mE3yYb9U-171" value="" style="shape=umlLifeline;perimeter=lifelinePerimeter;whiteSpace=wrap;html=1;container=1;dropTarget=0;collapsible=0;recursiveResize=0;outlineConnect=0;portConstraint=eastwest;newEdgeStyle={&quot;edgeStyle&quot;:&quot;elbowEdgeStyle&quot;,&quot;elbow&quot;:&quot;vertical&quot;,&quot;curved&quot;:0,&quot;rounded&quot;:0};participant=umlEntity;" parent="1" vertex="1">
          <mxGeometry x="1250" y="1615" width="40" height="940" as="geometry" />
        </mxCell>
        <mxCell id="4nMGlKhWPUo4mE3yYb9U-180" value="getFood()" style="endArrow=classic;html=1;rounded=0;" parent="1" source="4nMGlKhWPUo4mE3yYb9U-164" target="4nMGlKhWPUo4mE3yYb9U-168" edge="1">
          <mxGeometry x="-0.1434" y="10" width="50" height="50" relative="1" as="geometry">
            <mxPoint x="860" y="1745" as="sourcePoint" />
            <mxPoint x="910" y="1695" as="targetPoint" />
            <Array as="points">
              <mxPoint x="630" y="1685" />
            </Array>
            <mxPoint as="offset" />
          </mxGeometry>
        </mxCell>
        <mxCell id="4nMGlKhWPUo4mE3yYb9U-181" value="searchFood()" style="endArrow=classic;html=1;rounded=0;" parent="1" source="4nMGlKhWPUo4mE3yYb9U-168" target="4nMGlKhWPUo4mE3yYb9U-222" edge="1">
          <mxGeometry x="-0.1602" y="10" width="50" height="50" relative="1" as="geometry">
            <mxPoint x="860" y="1615" as="sourcePoint" />
            <mxPoint x="910" y="1565" as="targetPoint" />
            <Array as="points">
              <mxPoint x="720" y="1715" />
            </Array>
            <mxPoint as="offset" />
          </mxGeometry>
        </mxCell>
        <mxCell id="4nMGlKhWPUo4mE3yYb9U-182" value="saveFood()" style="endArrow=classic;html=1;rounded=0;entryX=-0.1;entryY=0;entryDx=0;entryDy=0;entryPerimeter=0;" parent="1" source="4nMGlKhWPUo4mE3yYb9U-222" target="4nMGlKhWPUo4mE3yYb9U-216" edge="1">
          <mxGeometry x="0.029" y="10" width="50" height="50" relative="1" as="geometry">
            <mxPoint x="860" y="1745" as="sourcePoint" />
            <mxPoint x="910" y="1695" as="targetPoint" />
            <Array as="points">
              <mxPoint x="790" y="1745" />
            </Array>
            <mxPoint as="offset" />
          </mxGeometry>
        </mxCell>
        <mxCell id="4nMGlKhWPUo4mE3yYb9U-183" value="showFoodDetails()" style="endArrow=classic;html=1;rounded=0;" parent="1" source="4nMGlKhWPUo4mE3yYb9U-170" edge="1">
          <mxGeometry x="-0.021" y="10" width="50" height="50" relative="1" as="geometry">
            <mxPoint x="860" y="1745" as="sourcePoint" />
            <mxPoint x="1030" y="1775" as="targetPoint" />
            <Array as="points">
              <mxPoint x="970" y="1775" />
            </Array>
            <mxPoint as="offset" />
          </mxGeometry>
        </mxCell>
        <mxCell id="4nMGlKhWPUo4mE3yYb9U-184" value="showError()" style="endArrow=classic;html=1;rounded=0;entryX=1;entryY=0.917;entryDx=0;entryDy=0;entryPerimeter=0;" parent="1" source="4nMGlKhWPUo4mE3yYb9U-222" target="4nMGlKhWPUo4mE3yYb9U-215" edge="1">
          <mxGeometry x="-0.0901" y="30" width="50" height="50" relative="1" as="geometry">
            <mxPoint x="749" y="1795" as="sourcePoint" />
            <mxPoint x="790" y="1825" as="targetPoint" />
            <Array as="points">
              <mxPoint x="830" y="1795" />
              <mxPoint x="830" y="1825" />
            </Array>
            <mxPoint y="1" as="offset" />
          </mxGeometry>
        </mxCell>
        <mxCell id="4nMGlKhWPUo4mE3yYb9U-185" value="showManualAdd()" style="endArrow=classic;html=1;rounded=0;entryX=-0.167;entryY=-0.004;entryDx=0;entryDy=0;entryPerimeter=0;" parent="1" source="4nMGlKhWPUo4mE3yYb9U-222" target="4nMGlKhWPUo4mE3yYb9U-218" edge="1">
          <mxGeometry x="0.0361" y="10" width="50" height="50" relative="1" as="geometry">
            <mxPoint x="860" y="1745" as="sourcePoint" />
            <mxPoint x="1150" y="1835" as="targetPoint" />
            <Array as="points">
              <mxPoint x="830" y="1835" />
            </Array>
            <mxPoint as="offset" />
          </mxGeometry>
        </mxCell>
        <mxCell id="4nMGlKhWPUo4mE3yYb9U-186" value="getManFood()" style="endArrow=classic;html=1;rounded=0;entryX=-0.2;entryY=0.617;entryDx=0;entryDy=0;entryPerimeter=0;" parent="1" target="4nMGlKhWPUo4mE3yYb9U-218" edge="1">
          <mxGeometry x="-0.0147" y="10" width="50" height="50" relative="1" as="geometry">
            <mxPoint x="569.1666666666666" y="1885" as="sourcePoint" />
            <mxPoint x="1014.5" y="1885" as="targetPoint" />
            <Array as="points">
              <mxPoint x="650" y="1885" />
              <mxPoint x="720" y="1885" />
              <mxPoint x="830" y="1885" />
              <mxPoint x="940" y="1885" />
            </Array>
            <mxPoint as="offset" />
          </mxGeometry>
        </mxCell>
        <mxCell id="4nMGlKhWPUo4mE3yYb9U-187" value="saveFood()" style="endArrow=classic;html=1;rounded=0;entryX=1.133;entryY=0.415;entryDx=0;entryDy=0;entryPerimeter=0;" parent="1" source="4nMGlKhWPUo4mE3yYb9U-166" target="4nMGlKhWPUo4mE3yYb9U-216" edge="1">
          <mxGeometry x="-0.444" y="-10" width="50" height="50" relative="1" as="geometry">
            <mxPoint x="860" y="1745" as="sourcePoint" />
            <mxPoint x="910" y="1695" as="targetPoint" />
            <Array as="points">
              <mxPoint x="990" y="1915" />
            </Array>
            <mxPoint x="1" as="offset" />
          </mxGeometry>
        </mxCell>
        <mxCell id="4nMGlKhWPUo4mE3yYb9U-188" value="showFoodDetails()" style="endArrow=classic;html=1;rounded=0;entryX=0.033;entryY=0.291;entryDx=0;entryDy=0;entryPerimeter=0;" parent="1" source="4nMGlKhWPUo4mE3yYb9U-170" target="4nMGlKhWPUo4mE3yYb9U-217" edge="1">
          <mxGeometry x="-0.021" y="10" width="50" height="50" relative="1" as="geometry">
            <mxPoint x="839" y="1785" as="sourcePoint" />
            <mxPoint x="935" y="1785" as="targetPoint" />
            <Array as="points">
              <mxPoint x="970" y="1955" />
            </Array>
            <mxPoint as="offset" />
          </mxGeometry>
        </mxCell>
        <mxCell id="4nMGlKhWPUo4mE3yYb9U-189" value="food&lt;br&gt;exists" style="text;html=1;align=center;verticalAlign=middle;resizable=0;points=[];autosize=1;strokeColor=none;fillColor=none;" parent="1" vertex="1">
          <mxGeometry x="595" y="1735" width="50" height="40" as="geometry" />
        </mxCell>
        <mxCell id="4nMGlKhWPUo4mE3yYb9U-190" value="food&lt;br&gt;doesnt&lt;br&gt;exist" style="text;html=1;align=center;verticalAlign=middle;resizable=0;points=[];autosize=1;strokeColor=none;fillColor=none;" parent="1" vertex="1">
          <mxGeometry x="590" y="1805" width="60" height="60" as="geometry" />
        </mxCell>
        <mxCell id="4nMGlKhWPUo4mE3yYb9U-191" value="" style="endArrow=none;dashed=1;html=1;rounded=0;exitX=0.003;exitY=0.256;exitDx=0;exitDy=0;exitPerimeter=0;strokeWidth=2;entryX=1.004;entryY=0.254;entryDx=0;entryDy=0;entryPerimeter=0;" parent="1" source="4nMGlKhWPUo4mE3yYb9U-163" target="4nMGlKhWPUo4mE3yYb9U-163" edge="1">
          <mxGeometry width="50" height="50" relative="1" as="geometry">
            <mxPoint x="688.6" y="1786.1000000000001" as="sourcePoint" />
            <mxPoint x="1040" y="1786" as="targetPoint" />
          </mxGeometry>
        </mxCell>
        <mxCell id="4nMGlKhWPUo4mE3yYb9U-192" value="getFoodData()" style="endArrow=classic;html=1;rounded=0;entryX=0.967;entryY=0.682;entryDx=0;entryDy=0;entryPerimeter=0;" parent="1" source="4nMGlKhWPUo4mE3yYb9U-167" target="4nMGlKhWPUo4mE3yYb9U-216" edge="1">
          <mxGeometry x="-0.0664" y="-10" width="50" height="50" relative="1" as="geometry">
            <mxPoint x="924.5" y="2029" as="sourcePoint" />
            <mxPoint x="920" y="2025" as="targetPoint" />
            <Array as="points">
              <mxPoint x="980" y="2025" />
            </Array>
            <mxPoint as="offset" />
          </mxGeometry>
        </mxCell>
        <mxCell id="4nMGlKhWPUo4mE3yYb9U-193" value="insertSelection()" style="endArrow=classic;html=1;rounded=0;entryX=-0.167;entryY=0.354;entryDx=0;entryDy=0;entryPerimeter=0;" parent="1" source="4nMGlKhWPUo4mE3yYb9U-164" target="4nMGlKhWPUo4mE3yYb9U-217" edge="1">
          <mxGeometry x="-0.7146" y="10" width="50" height="50" relative="1" as="geometry">
            <mxPoint x="610" y="2035" as="sourcePoint" />
            <mxPoint x="660" y="1985" as="targetPoint" />
            <Array as="points">
              <mxPoint x="750" y="1995" />
            </Array>
            <mxPoint as="offset" />
          </mxGeometry>
        </mxCell>
        <mxCell id="4nMGlKhWPUo4mE3yYb9U-194" value="getFoodData()" style="endArrow=classic;html=1;rounded=0;entryX=1.033;entryY=0.902;entryDx=0;entryDy=0;entryPerimeter=0;" parent="1" source="4nMGlKhWPUo4mE3yYb9U-171" target="4nMGlKhWPUo4mE3yYb9U-216" edge="1">
          <mxGeometry x="0.6317" y="-10" width="50" height="50" relative="1" as="geometry">
            <mxPoint x="1030" y="2145" as="sourcePoint" />
            <mxPoint x="1090" y="2095" as="targetPoint" />
            <Array as="points">
              <mxPoint x="980" y="2115" />
            </Array>
            <mxPoint as="offset" />
          </mxGeometry>
        </mxCell>
        <mxCell id="4nMGlKhWPUo4mE3yYb9U-195" value="" style="endArrow=classic;html=1;rounded=0;dashed=1;dashPattern=8 8;entryX=-0.2;entryY=0;entryDx=0;entryDy=0;entryPerimeter=0;" parent="1" source="4nMGlKhWPUo4mE3yYb9U-170" target="4nMGlKhWPUo4mE3yYb9U-220" edge="1">
          <mxGeometry width="50" height="50" relative="1" as="geometry">
            <mxPoint x="850" y="2145" as="sourcePoint" />
            <mxPoint x="900" y="2095" as="targetPoint" />
            <Array as="points">
              <mxPoint x="1030" y="2155" />
            </Array>
          </mxGeometry>
        </mxCell>
        <mxCell id="4nMGlKhWPUo4mE3yYb9U-196" value="returnFoodData()" style="edgeLabel;html=1;align=center;verticalAlign=middle;resizable=0;points=[];" parent="4nMGlKhWPUo4mE3yYb9U-195" vertex="1" connectable="0">
          <mxGeometry x="-0.0771" y="-2" relative="1" as="geometry">
            <mxPoint x="-150" y="-12" as="offset" />
          </mxGeometry>
        </mxCell>
        <mxCell id="4nMGlKhWPUo4mE3yYb9U-197" value="returnFoodData()" style="endArrow=classic;html=1;rounded=0;dashed=1;dashPattern=8 8;entryX=-0.2;entryY=-0.001;entryDx=0;entryDy=0;entryPerimeter=0;" parent="1" target="4nMGlKhWPUo4mE3yYb9U-219" edge="1">
          <mxGeometry x="-0.6357" y="10" width="50" height="50" relative="1" as="geometry">
            <mxPoint x="910" y="2055" as="sourcePoint" />
            <mxPoint x="880" y="2005" as="targetPoint" />
            <mxPoint x="-1" as="offset" />
          </mxGeometry>
        </mxCell>
        <mxCell id="4nMGlKhWPUo4mE3yYb9U-198" value="addFood()" style="endArrow=classic;html=1;rounded=0;entryX=1.067;entryY=0.09;entryDx=0;entryDy=0;entryPerimeter=0;" parent="1" source="4nMGlKhWPUo4mE3yYb9U-171" target="4nMGlKhWPUo4mE3yYb9U-219" edge="1">
          <mxGeometry x="-0.179" y="-11" width="50" height="50" relative="1" as="geometry">
            <mxPoint x="1110" y="2076" as="sourcePoint" />
            <mxPoint x="1170" y="2015" as="targetPoint" />
            <Array as="points">
              <mxPoint x="1310" y="2076" />
              <mxPoint x="1310" y="2095" />
            </Array>
            <mxPoint x="11" y="-11" as="offset" />
          </mxGeometry>
        </mxCell>
        <mxCell id="4nMGlKhWPUo4mE3yYb9U-199" value="addFoodData()" style="endArrow=classic;html=1;rounded=0;entryX=1.1;entryY=0.1;entryDx=0;entryDy=0;entryPerimeter=0;" parent="1" source="4nMGlKhWPUo4mE3yYb9U-169" target="4nMGlKhWPUo4mE3yYb9U-220" edge="1">
          <mxGeometry x="-0.0632" y="40" width="50" height="50" relative="1" as="geometry">
            <mxPoint x="1189.3235294117646" y="2171" as="sourcePoint" />
            <mxPoint x="1189.3235294117646" y="2203" as="targetPoint" />
            <Array as="points">
              <mxPoint x="1430" y="2171" />
              <mxPoint x="1430" y="2185" />
            </Array>
            <mxPoint y="1" as="offset" />
          </mxGeometry>
        </mxCell>
        <mxCell id="4nMGlKhWPUo4mE3yYb9U-200" value="retMealsData()" style="endArrow=classic;html=1;rounded=0;dashed=1;dashPattern=8 8;entryX=-0.1;entryY=0.482;entryDx=0;entryDy=0;entryPerimeter=0;" parent="1" source="4nMGlKhWPUo4mE3yYb9U-171" target="4nMGlKhWPUo4mE3yYb9U-221" edge="1">
          <mxGeometry x="-0.4647" y="10" width="50" height="50" relative="1" as="geometry">
            <mxPoint x="1105" y="2275" as="sourcePoint" />
            <mxPoint x="1155" y="2225" as="targetPoint" />
            <Array as="points">
              <mxPoint x="1420" y="2355" />
            </Array>
            <mxPoint as="offset" />
          </mxGeometry>
        </mxCell>
        <mxCell id="4nMGlKhWPUo4mE3yYb9U-201" value="showDailyLists()" style="endArrow=classic;html=1;rounded=0;entryX=0;entryY=0;entryDx=0;entryDy=0;entryPerimeter=0;" parent="1" source="4nMGlKhWPUo4mE3yYb9U-169" target="4nMGlKhWPUo4mE3yYb9U-221" edge="1">
          <mxGeometry x="-0.0471" y="10" width="50" height="50" relative="1" as="geometry">
            <mxPoint x="1320" y="2225" as="sourcePoint" />
            <mxPoint x="1370" y="2175" as="targetPoint" />
            <Array as="points">
              <mxPoint x="1450" y="2215" />
            </Array>
            <mxPoint x="1" as="offset" />
          </mxGeometry>
        </mxCell>
        <mxCell id="4nMGlKhWPUo4mE3yYb9U-202" value="getConsData()" style="endArrow=classic;html=1;rounded=0;entryX=1.067;entryY=0.369;entryDx=0;entryDy=0;entryPerimeter=0;" parent="1" source="4nMGlKhWPUo4mE3yYb9U-165" target="4nMGlKhWPUo4mE3yYb9U-220" edge="1">
          <mxGeometry x="-0.0062" y="-10" width="50" height="50" relative="1" as="geometry">
            <mxPoint x="1270" y="2255" as="sourcePoint" />
            <mxPoint x="1380" y="2205" as="targetPoint" />
            <Array as="points">
              <mxPoint x="1450" y="2265" />
            </Array>
            <mxPoint as="offset" />
          </mxGeometry>
        </mxCell>
        <mxCell id="4nMGlKhWPUo4mE3yYb9U-203" value="retConsData()" style="endArrow=classic;html=1;rounded=0;dashed=1;dashPattern=8 8;entryX=-0.1;entryY=0.275;entryDx=0;entryDy=0;entryPerimeter=0;" parent="1" source="4nMGlKhWPUo4mE3yYb9U-169" target="4nMGlKhWPUo4mE3yYb9U-221" edge="1">
          <mxGeometry x="-0.0471" y="10" width="50" height="50" relative="1" as="geometry">
            <mxPoint x="1330" y="2265" as="sourcePoint" />
            <mxPoint x="1380" y="2215" as="targetPoint" />
            <Array as="points">
              <mxPoint x="1450" y="2295" />
            </Array>
            <mxPoint x="1" as="offset" />
          </mxGeometry>
        </mxCell>
        <mxCell id="4nMGlKhWPUo4mE3yYb9U-204" value="getMealsData()" style="endArrow=classic;html=1;rounded=0;entryX=1;entryY=0.601;entryDx=0;entryDy=0;entryPerimeter=0;" parent="1" source="4nMGlKhWPUo4mE3yYb9U-165" target="4nMGlKhWPUo4mE3yYb9U-219" edge="1">
          <mxGeometry x="0.4647" y="-10" width="50" height="50" relative="1" as="geometry">
            <mxPoint x="1310" y="2315" as="sourcePoint" />
            <mxPoint x="1360" y="2265" as="targetPoint" />
            <Array as="points">
              <mxPoint x="1430" y="2325" />
            </Array>
            <mxPoint as="offset" />
          </mxGeometry>
        </mxCell>
        <mxCell id="4nMGlKhWPUo4mE3yYb9U-205" value="showDailyLists()" style="endArrow=classic;html=1;rounded=0;entryX=-0.133;entryY=0.622;entryDx=0;entryDy=0;entryPerimeter=0;" parent="1" source="4nMGlKhWPUo4mE3yYb9U-167" target="4nMGlKhWPUo4mE3yYb9U-221" edge="1">
          <mxGeometry x="-0.74" y="10" width="50" height="50" relative="1" as="geometry">
            <mxPoint x="970" y="2445" as="sourcePoint" />
            <mxPoint x="1020" y="2395" as="targetPoint" />
            <Array as="points">
              <mxPoint x="1080" y="2395" />
            </Array>
            <mxPoint as="offset" />
          </mxGeometry>
        </mxCell>
        <mxCell id="4nMGlKhWPUo4mE3yYb9U-206" value="getConsData()" style="endArrow=classic;html=1;rounded=0;entryX=1.067;entryY=0.898;entryDx=0;entryDy=0;entryPerimeter=0;" parent="1" source="4nMGlKhWPUo4mE3yYb9U-165" target="4nMGlKhWPUo4mE3yYb9U-220" edge="1">
          <mxGeometry x="-0.0062" y="-10" width="50" height="50" relative="1" as="geometry">
            <mxPoint x="1284.5" y="2275" as="sourcePoint" />
            <mxPoint x="1199.5" y="2275" as="targetPoint" />
            <Array as="points">
              <mxPoint x="1430" y="2425" />
            </Array>
            <mxPoint as="offset" />
          </mxGeometry>
        </mxCell>
        <mxCell id="4nMGlKhWPUo4mE3yYb9U-207" value="retConsData()" style="endArrow=classic;html=1;rounded=0;dashed=1;dashPattern=8 8;entryX=0;entryY=0.828;entryDx=0;entryDy=0;entryPerimeter=0;" parent="1" source="4nMGlKhWPUo4mE3yYb9U-169" target="4nMGlKhWPUo4mE3yYb9U-221" edge="1">
          <mxGeometry x="-0.0471" y="10" width="50" height="50" relative="1" as="geometry">
            <mxPoint x="1199.5" y="2305" as="sourcePoint" />
            <mxPoint x="1284.5" y="2305" as="targetPoint" />
            <Array as="points">
              <mxPoint x="1440" y="2455" />
            </Array>
            <mxPoint x="1" as="offset" />
          </mxGeometry>
        </mxCell>
        <mxCell id="4nMGlKhWPUo4mE3yYb9U-208" value="getMealsData()" style="endArrow=classic;html=1;rounded=0;entryX=1.067;entryY=0.934;entryDx=0;entryDy=0;entryPerimeter=0;" parent="1" source="4nMGlKhWPUo4mE3yYb9U-165" target="4nMGlKhWPUo4mE3yYb9U-219" edge="1">
          <mxGeometry x="0.4647" y="-10" width="50" height="50" relative="1" as="geometry">
            <mxPoint x="1284.5" y="2335" as="sourcePoint" />
            <mxPoint x="1114.5" y="2335" as="targetPoint" />
            <Array as="points">
              <mxPoint x="1360" y="2475" />
            </Array>
            <mxPoint as="offset" />
          </mxGeometry>
        </mxCell>
        <mxCell id="4nMGlKhWPUo4mE3yYb9U-209" value="retMealsData()" style="endArrow=classic;html=1;rounded=0;dashed=1;dashPattern=8 8;entryX=-0.167;entryY=0.999;entryDx=0;entryDy=0;entryPerimeter=0;" parent="1" source="4nMGlKhWPUo4mE3yYb9U-171" target="4nMGlKhWPUo4mE3yYb9U-221" edge="1">
          <mxGeometry x="-0.4647" y="10" width="50" height="50" relative="1" as="geometry">
            <mxPoint x="1114.5" y="2365" as="sourcePoint" />
            <mxPoint x="1280" y="2365" as="targetPoint" />
            <Array as="points">
              <mxPoint x="1370" y="2505" />
            </Array>
            <mxPoint as="offset" />
          </mxGeometry>
        </mxCell>
        <mxCell id="4nMGlKhWPUo4mE3yYb9U-210" value="User selects Yes" style="text;html=1;strokeColor=none;fillColor=none;align=center;verticalAlign=middle;whiteSpace=wrap;rounded=0;" parent="1" vertex="1">
          <mxGeometry x="820" y="2055" width="60" height="30" as="geometry" />
        </mxCell>
        <mxCell id="4nMGlKhWPUo4mE3yYb9U-211" value="User selects No" style="text;html=1;strokeColor=none;fillColor=none;align=center;verticalAlign=middle;whiteSpace=wrap;rounded=0;" parent="1" vertex="1">
          <mxGeometry x="820" y="2405" width="60" height="30" as="geometry" />
        </mxCell>
        <mxCell id="4nMGlKhWPUo4mE3yYb9U-212" value="" style="endArrow=none;dashed=1;html=1;rounded=0;strokeWidth=2;entryX=0.998;entryY=0.71;entryDx=0;entryDy=0;entryPerimeter=0;exitX=0.002;exitY=0.704;exitDx=0;exitDy=0;exitPerimeter=0;" parent="1" source="4nMGlKhWPUo4mE3yYb9U-162" target="4nMGlKhWPUo4mE3yYb9U-162" edge="1">
          <mxGeometry width="50" height="50" relative="1" as="geometry">
            <mxPoint x="770" y="2375" as="sourcePoint" />
            <mxPoint x="1300" y="2375" as="targetPoint" />
          </mxGeometry>
        </mxCell>
        <mxCell id="4nMGlKhWPUo4mE3yYb9U-213" value="" style="html=1;points=[];perimeter=orthogonalPerimeter;" parent="1" vertex="1">
          <mxGeometry x="565" y="1685" width="10" height="830" as="geometry" />
        </mxCell>
        <mxCell id="4nMGlKhWPUo4mE3yYb9U-214" value="" style="html=1;points=[];perimeter=orthogonalPerimeter;" parent="1" vertex="1">
          <mxGeometry x="660" y="1685" width="10" height="30" as="geometry" />
        </mxCell>
        <mxCell id="4nMGlKhWPUo4mE3yYb9U-215" value="" style="html=1;points=[];perimeter=orthogonalPerimeter;" parent="1" vertex="1">
          <mxGeometry x="785" y="1715" width="10" height="120" as="geometry" />
        </mxCell>
        <mxCell id="4nMGlKhWPUo4mE3yYb9U-216" value="" style="html=1;points=[];perimeter=orthogonalPerimeter;" parent="1" vertex="1">
          <mxGeometry x="905" y="1745" width="10" height="410" as="geometry" />
        </mxCell>
        <mxCell id="4nMGlKhWPUo4mE3yYb9U-217" value="" style="html=1;points=[];perimeter=orthogonalPerimeter;" parent="1" vertex="1">
          <mxGeometry x="1030" y="1775" width="10" height="620" as="geometry" />
        </mxCell>
        <mxCell id="4nMGlKhWPUo4mE3yYb9U-218" value="" style="html=1;points=[];perimeter=orthogonalPerimeter;" parent="1" vertex="1">
          <mxGeometry x="1155" y="1835" width="10" height="80" as="geometry" />
        </mxCell>
        <mxCell id="4nMGlKhWPUo4mE3yYb9U-219" value="" style="html=1;points=[];perimeter=orthogonalPerimeter;" parent="1" vertex="1">
          <mxGeometry x="1265" y="2055" width="10" height="450" as="geometry" />
        </mxCell>
        <mxCell id="4nMGlKhWPUo4mE3yYb9U-220" value="" style="html=1;points=[];perimeter=orthogonalPerimeter;" parent="1" vertex="1">
          <mxGeometry x="1385" y="2155" width="10" height="300" as="geometry" />
        </mxCell>
        <mxCell id="4nMGlKhWPUo4mE3yYb9U-221" value="" style="html=1;points=[];perimeter=orthogonalPerimeter;" parent="1" vertex="1">
          <mxGeometry x="1500" y="2215" width="10" height="290" as="geometry" />
        </mxCell>
        <mxCell id="4nMGlKhWPUo4mE3yYb9U-222" value="" style="shape=umlLifeline;perimeter=lifelinePerimeter;whiteSpace=wrap;html=1;container=1;dropTarget=0;collapsible=0;recursiveResize=0;outlineConnect=0;portConstraint=eastwest;newEdgeStyle={&quot;edgeStyle&quot;:&quot;elbowEdgeStyle&quot;,&quot;elbow&quot;:&quot;vertical&quot;,&quot;curved&quot;:0,&quot;rounded&quot;:0};participant=umlEntity;" parent="1" vertex="1">
          <mxGeometry x="770" y="1615" width="40" height="940" as="geometry" />
        </mxCell>
        <mxCell id="4nMGlKhWPUo4mE3yYb9U-231" value="User" style="text;html=1;align=center;verticalAlign=middle;resizable=0;points=[];autosize=1;strokeColor=none;fillColor=none;" parent="1" vertex="1">
          <mxGeometry x="545" y="1575" width="50" height="30" as="geometry" />
        </mxCell>
        <mxCell id="Iz-kwESgx-guq6wBt5is-1" value="FoodSearchPage" style="rounded=0;whiteSpace=wrap;html=1;" parent="1" vertex="1">
          <mxGeometry x="615" y="1615" width="100" height="40" as="geometry" />
        </mxCell>
        <mxCell id="Iz-kwESgx-guq6wBt5is-3" value="NutritionAPI" style="rounded=0;whiteSpace=wrap;html=1;" parent="1" vertex="1">
          <mxGeometry x="740" y="1615" width="100" height="40" as="geometry" />
        </mxCell>
        <mxCell id="Iz-kwESgx-guq6wBt5is-4" value="FoodList" style="rounded=0;whiteSpace=wrap;html=1;" parent="1" vertex="1">
          <mxGeometry x="860" y="1615" width="100" height="40" as="geometry" />
        </mxCell>
        <mxCell id="Iz-kwESgx-guq6wBt5is-7" value="FoodDetailsPage" style="rounded=0;whiteSpace=wrap;html=1;" parent="1" vertex="1">
          <mxGeometry x="985" y="1615" width="100" height="40" as="geometry" />
        </mxCell>
        <mxCell id="Iz-kwESgx-guq6wBt5is-9" value="ManualInputPage" style="rounded=0;whiteSpace=wrap;html=1;" parent="1" vertex="1">
          <mxGeometry x="1110" y="1615" width="100" height="40" as="geometry" />
        </mxCell>
        <mxCell id="Iz-kwESgx-guq6wBt5is-10" value="DailyMeals" style="rounded=0;whiteSpace=wrap;html=1;" parent="1" vertex="1">
          <mxGeometry x="1220" y="1615" width="100" height="40" as="geometry" />
        </mxCell>
        <mxCell id="Iz-kwESgx-guq6wBt5is-11" value="DailyConsumption" style="rounded=0;whiteSpace=wrap;html=1;" parent="1" vertex="1">
          <mxGeometry x="1340" y="1615" width="100" height="40" as="geometry" />
        </mxCell>
        <mxCell id="Iz-kwESgx-guq6wBt5is-12" value="DailyListsPage" style="rounded=0;whiteSpace=wrap;html=1;" parent="1" vertex="1">
          <mxGeometry x="1465" y="1614" width="100" height="40" as="geometry" />
        </mxCell>
      </root>
    </mxGraphModel>
  </diagram>
</mxfile>
